<?xml version="1.0" standalone="no"?>
<!DOCTYPE svg PUBLIC "-//W3C//DTD SVG 20010904//EN"
 "http://www.w3.org/TR/2001/REC-SVG-20010904/DTD/svg10.dtd">
<svg version="1.0" xmlns="http://www.w3.org/2000/svg"
 width="192.000000pt" height="192.000000pt" viewBox="0 0 192.000000 192.000000"
 preserveAspectRatio="xMidYMid meet">
<metadata>
Created by potrace 1.14, written by Peter Selinger 2001-2017
</metadata>
<g transform="translate(0.000000,192.000000) scale(0.100000,-0.100000)"
fill="#000000" stroke="none">
<path d="M0 960 l0 -960 960 0 960 0 0 960 0 960 -960 0 -960 0 0 -960z m1044
658 c-8 -28 -16 -60 -20 -70 -5 -17 6 -18 193 -18 196 0 199 0 236 -25 55 -38
80 -94 75 -171 -5 -74 -37 -130 -100 -171 l-41 -28 -240 -3 -240 -3 7 23 c4
13 12 44 18 71 l11 47 198 0 198 0 20 26 c12 15 21 34 21 43 0 37 -19 41 -211
41 l-187 0 -6 -25 c-6 -24 -9 -25 -95 -25 l-88 0 -9 -32 c-7 -25 -16 -34 -36
-36 -68 -8 -94 60 -42 109 24 22 34 24 149 27 135 4 125 -1 140 67 3 17 8 38
11 48 5 16 -5 17 -124 17 -164 0 -218 -15 -277 -75 -31 -32 -48 -62 -65 -114
-25 -79 -22 -116 16 -161 31 -36 77 -50 172 -50 81 0 76 6 57 -77 -12 -51 -28
-58 -129 -57 -106 1 -150 18 -209 83 -68 76 -87 154 -61 258 39 156 118 254
253 309 51 22 71 24 237 24 l181 0 -13 -52z m6 -635 c0 -9 -7 -43 -16 -75
l-17 -58 -56 -1 c-66 -1 -114 1 -120 7 -4 4 14 80 29 118 9 25 12 26 95 26 73
0 85 -2 85 -17z m838 -329 c28 -19 28 -34 -1 -120 l-24 -69 -928 -3 c-832 -2
-927 -1 -921 13 3 9 13 41 22 72 9 31 23 71 30 90 l14 33 893 0 c792 0 895 -2
915 -16z"/>
</g>
</svg>
